<svg width="131" height="136" viewBox="0 0 131 136" fill="none" xmlns="http://www.w3.org/2000/svg">
<path id="Vector" d="M72.7524 0C39.4936 11.191 11.4391 34.0054 0 68C11.3085 101.607 39.0996 124.676 72.7524 136C102.677 112.981 118.995 94.4942 131 68C113.769 56.4578 106.531 50.5157 92.5607 32.6547C73.8431 41.3276 57.5508 51.4349 43.1184 67.631C48.2976 74.9916 56.8967 81.8625 63.8491 87.5072C73.9814 80.0783 81.7084 72.8397 86.7136 66.6289C89.852 70.4549 93.3907 73.0006 96.761 75.1288C88.055 89.906 78.2847 98.0191 66.2197 105.768C48.0978 96.1967 33.5308 79.629 26.4509 65.6203C39.721 43.7916 60.5347 29.0527 84.1846 20.8387C80.3531 14.1433 75.331 7.90816 72.7524 0Z" fill="#FFE30B"/>
</svg>
