<svg width="81" height="80" viewBox="0 0 81 80" fill="none" xmlns="http://www.w3.org/2000/svg">
<g id="svg-gobbler - 2023-06-21T143903.012 1">
<g id="Group">
<path id="foot print copy" d="M57.64 75.6813C55.79 75.6813 53.8912 75.2063 52.1075 74.255C44.3825 70.1388 36.6162 70.1388 28.8925 74.255C25.3025 76.17 21.2462 76.1525 18.0375 74.2088C14.4425 72.1475 11.9687 68.29 11.445 63.905C10.9175 59.4913 12.3675 55.2988 15.425 52.4C17.2119 50.6075 19.4548 49.3376 21.9112 48.7275C23.8775 48.2838 25.5125 46.91 26.4187 44.955C26.6737 44.4938 26.845 44.0413 27.0037 43.4413C28.4525 37.92 34.76 33.0763 40.5 33.0763C46.24 33.0763 52.5475 37.92 53.9962 43.4425C54.155 44.0413 54.3262 44.4938 54.5375 44.8688C55.4887 46.9113 57.1225 48.2838 59.0637 48.7225C61.5413 49.3343 63.8029 50.6156 65.6012 52.4263C68.6325 55.2988 70.0825 59.4913 69.555 63.905C69.0312 68.2888 66.5575 72.1463 62.9362 74.2238C61.3378 75.186 59.5056 75.6902 57.64 75.6813ZM40.5 68.6525C44.7537 68.6525 49.0562 69.795 53.285 72.0488C56.0887 73.5438 59.2225 73.5538 61.6662 72.0713C64.6312 70.37 66.6425 67.2125 67.0737 63.6088C67.5062 59.9875 66.3325 56.5638 63.855 54.2138C62.3806 52.7213 60.5241 51.6632 58.4887 51.155C55.8087 50.5513 53.55 48.6725 52.3137 46.0075C52.04 45.53 51.7937 44.8888 51.58 44.0788C50.4112 39.6275 45.1312 35.5763 40.5012 35.5763C35.8712 35.5763 30.59 39.6288 29.4225 44.0775C29.2087 44.8888 28.9625 45.53 28.645 46.0938C27.4525 48.6713 25.1925 50.55 22.4875 51.16C20.4729 51.6656 18.6349 52.7125 17.1725 54.1875C14.6687 56.5625 13.4962 59.9863 13.9275 63.6075C14.3587 67.21 16.37 70.3675 19.31 72.0538C21.7787 73.55 24.9125 73.5438 27.7175 72.0475C31.9462 69.7938 36.2475 68.6513 40.5025 68.6513L40.5 68.6525ZM29.8475 27.1675C27.4975 27.1675 25.5262 26.6738 23.9737 25.6938C21.7812 24.31 20.5562 22.065 20.3312 19.0225C20.1075 16.0088 20.9137 12.5213 22.4887 9.69376C24.295 6.45001 26.7912 4.55126 29.5175 4.35001C32.315 4.13751 37.0962 5.44251 37.9112 16.4475C38.16 19.8075 37.8837 22.0563 37.0112 23.74C35.96 25.7713 34.0062 26.9075 31.2037 27.115C30.7387 27.15 30.2862 27.1675 29.8475 27.1675ZM30.025 6.83126C29.917 6.83132 29.809 6.83508 29.7012 6.84251C27.8687 6.97876 26.035 8.46001 24.6725 10.9088C23.3275 13.3275 22.6362 16.2913 22.8237 18.8375C22.99 21.0775 23.8025 22.6275 25.3075 23.5788C26.6675 24.4375 28.6475 24.7938 31.0162 24.6213C33.5262 24.435 34.3512 23.4388 34.79 22.59C35.4287 21.3575 35.6275 19.4638 35.4175 16.63C35.0837 12.1213 33.8725 6.82876 30.025 6.82876V6.83126ZM12.4662 45.8063C11.31 45.8063 10.245 45.6288 9.27623 45.2738C6.84248 44.38 5.17373 42.4425 4.31498 39.515C3.46498 36.615 3.52248 33.035 4.46998 29.9413C5.55498 26.39 7.59873 24.0113 10.2237 23.2425C12.075 22.6988 14.8087 22.6863 17.3275 25.7088C18.7725 27.4438 19.9975 30.0013 20.9675 33.3125C22.295 37.8438 23.0037 43.285 16.6437 45.1488C15.1475 45.5875 13.7512 45.8063 12.4662 45.8063ZM12.1025 25.4625C11.7043 25.4658 11.3086 25.5259 10.9275 25.6413C9.16373 26.1588 7.68123 27.9925 6.86123 30.6725C6.05248 33.3188 5.99748 36.3613 6.71623 38.8125C7.34748 40.9675 8.46623 42.3138 10.1387 42.9275C11.6487 43.4813 13.655 43.4213 15.9412 42.75C19.04 41.8413 20.375 40.1813 18.5687 34.015C17.7087 31.0763 16.6162 28.7575 15.4087 27.3088C14.3737 26.0663 13.3025 25.4625 12.1037 25.4625H12.1025ZM68.535 45.8063C67.2512 45.8063 65.8537 45.5875 64.3575 45.1488C57.9975 43.285 58.7062 37.8438 60.0337 33.3125C61.0037 30.0025 62.2287 27.4438 63.6737 25.7088C66.1912 22.6863 68.9262 22.7 70.7775 23.2425C73.4025 24.0113 75.445 26.39 76.5312 29.9413C77.4787 33.0363 77.5362 36.615 76.6862 39.515C75.8275 42.4425 74.16 44.38 71.725 45.2738C70.7575 45.6288 69.6912 45.8063 68.535 45.8063ZM68.8987 25.4625C67.7 25.4625 66.63 26.0663 65.5937 27.3088C64.3862 28.7588 63.2937 31.0775 62.4337 34.015C60.6275 40.1813 61.9625 41.8413 65.0612 42.75C67.3462 43.42 69.3537 43.4813 70.8637 42.9275C72.5362 42.3138 73.655 40.9675 74.2862 38.8125C75.005 36.3625 74.95 33.3188 74.1412 30.6725C73.3212 27.9925 71.8387 26.1588 70.075 25.6413C69.6938 25.526 69.2969 25.4658 68.8987 25.4625ZM51.1537 27.1675C50.715 27.1675 50.2637 27.15 49.7987 27.115C46.9962 26.9075 45.0412 25.7725 43.9912 23.74C43.12 22.0563 42.8425 19.8075 43.0912 16.4475C43.9037 5.44251 48.71 4.13626 51.4837 4.35001C54.2112 4.55126 56.7075 6.45001 58.5137 9.69376C60.0887 12.5213 60.8937 16.0088 60.6712 19.0225C60.4462 22.065 59.2212 24.3088 57.0287 25.6938C55.4762 26.6738 53.5037 27.1675 51.1537 27.1675ZM50.9762 6.83126C47.1275 6.83126 45.9162 12.1225 45.5837 16.6325C45.3737 19.4663 45.5725 21.36 46.2112 22.5925C46.65 23.44 47.475 24.4375 49.985 24.6238C52.3575 24.795 54.3337 24.4388 55.6937 23.5813C57.1987 22.63 58.0112 21.08 58.1775 18.84C58.365 16.2938 57.675 13.33 56.3287 10.9113C54.965 8.46251 53.1312 6.98001 51.2987 6.84501C51.1914 6.83758 51.0838 6.83382 50.9762 6.83376V6.83126Z" fill="#50AB09"/>
</g>
</g>
</svg>
