<svg width="80" height="80" viewBox="0 0 80 80" fill="none" xmlns="http://www.w3.org/2000/svg">
<g id="svg-gobbler - 2023-06-21T144037.160 1">
<g id="Group">
<path id="Vector" d="M73.6 6.07997C71.7867 4.6933 69.2267 5.0133 67.7333 6.82664L37.9733 44.6933L35.3067 42.56C33.4933 41.1733 30.8267 41.3866 29.3333 43.3066L27.4133 45.76C21.76 53.0133 15.5733 51.6266 6.08 50.0266C5.44 49.92 4.90666 50.3466 4.8 50.9866C3.84 62.2933 27.0933 77.0133 31.4667 74.56C37.76 70.9333 39.4667 68.8 43.9467 63.04C45.6533 60.9066 45.3333 61.2266 48.1067 57.8133C49.4933 56 49.1733 53.3333 47.36 51.84L44.6933 49.7066L74.4533 11.7333C75.7333 10.0266 75.4133 7.46664 73.6 6.07997ZM11.84 61.12C13.6533 61.3333 15.36 61.2266 16.7467 60.9066C15.5733 62.08 14.5067 62.9333 13.8667 63.2533C13.2267 62.6133 12.48 61.8666 11.84 61.12ZM24.2133 70.6133C22.9333 70.08 21.76 69.3333 20.5867 68.5866C23.36 67.9466 26.4533 66.56 28.6933 65.3866C27.4133 67.4133 25.7067 69.6533 24.2133 70.6133ZM42.24 61.76C37.9733 67.3066 36.48 69.2266 30.72 72.5333C29.3333 72.4266 27.9467 72 26.56 71.4666C29.5467 68.8 32.2133 63.7866 32.5333 63.04C32.96 62.08 32 61.12 31.04 61.6533C30.9333 61.6533 22.8267 66.56 18.1333 66.7733C17.28 66.1333 16.4267 65.3866 15.5733 64.7466C17.7067 63.36 20.2667 60.3733 21.2267 59.3066C21.9733 58.4533 20.9067 57.1733 19.9467 57.7066C19.9467 57.7066 15.1467 60.16 9.92 58.56C8.32 56.32 7.36 54.1866 7.14666 52.3733C15.68 53.8666 22.5067 54.9333 28.5867 48L43.7333 59.84C43.2 60.5866 42.6667 61.2266 42.24 61.76ZM46.2933 56.5333L45.0133 58.1333L29.76 46.1866L31.04 44.5866C31.7867 43.6266 33.0667 43.52 33.92 44.2666L45.8667 53.6533C46.8267 54.2933 47.04 55.5733 46.2933 56.5333ZM72.64 10.56L42.88 48.4266L39.68 45.9733L69.44 8.10664C70.08 7.2533 71.36 7.03997 72.32 7.78664C73.1733 8.42664 73.28 9.70664 72.64 10.56Z" fill="#50AB09"/>
</g>
</g>
</svg>
