<svg width="80" height="80" viewBox="0 0 80 80" fill="none" xmlns="http://www.w3.org/2000/svg">
<g id="svg-gobbler - 2023-06-21T141043.460 1">
<g id="Group">
<path id="Vector" d="M50.8333 59.2381C50.8333 59.7904 50.3856 60.2381 49.8333 60.2381H49.8095C49.2572 60.2381 48.8095 59.7904 48.8095 59.2381V59.2143C48.8095 58.662 49.2572 58.2143 49.8095 58.2143H49.8333C50.3856 58.2143 50.8333 58.662 50.8333 59.2143V59.2381ZM46.7857 59.2381C46.7857 59.7904 46.338 60.2381 45.7857 60.2381H45.7619C45.2096 60.2381 44.7619 59.7904 44.7619 59.2381V59.2143C44.7619 58.662 45.2096 58.2143 45.7619 58.2143H45.7857C46.338 58.2143 46.7857 58.662 46.7857 59.2143V59.2381ZM42.7381 59.2381C42.7381 59.7904 42.2904 60.2381 41.7381 60.2381H41.7143C41.162 60.2381 40.7143 59.7904 40.7143 59.2381V59.2143C40.7143 58.662 41.162 58.2143 41.7143 58.2143H41.7381C42.2904 58.2143 42.7381 58.662 42.7381 59.2143V59.2381ZM38.6904 59.2381C38.6904 59.7904 38.2427 60.2381 37.6904 60.2381H37.6666C37.1143 60.2381 36.6666 59.7904 36.6666 59.2381V59.2143C36.6666 58.662 37.1144 58.2143 37.6666 58.2143H37.6904C38.2427 58.2143 38.6904 58.662 38.6904 59.2143V59.2381ZM34.6428 59.2381C34.6428 59.7904 34.1951 60.2381 33.6428 60.2381H33.619C33.0667 60.2381 32.619 59.7904 32.619 59.2381V59.2143C32.619 58.662 33.0667 58.2143 33.619 58.2143H33.6428C34.1951 58.2143 34.6428 58.662 34.6428 59.2143V59.2381ZM30.5952 59.2381C30.5952 59.7904 30.1475 60.2381 29.5952 60.2381H29.5714C29.0191 60.2381 28.5714 59.7904 28.5714 59.2381V59.2143C28.5714 58.662 29.0191 58.2143 29.5714 58.2143H29.5952C30.1475 58.2143 30.5952 58.662 30.5952 59.2143V59.2381ZM26.5476 59.2381C26.5476 59.7904 26.0999 60.2381 25.5476 60.2381H25.5238C24.9715 60.2381 24.5238 59.7904 24.5238 59.2381V59.2143C24.5238 58.662 24.9715 58.2143 25.5238 58.2143H25.5476C26.0999 58.2143 26.5476 58.662 26.5476 59.2143V59.2381ZM22.5 59.2381C22.5 59.7904 22.0523 60.2381 21.5 60.2381H21.4762C20.9239 60.2381 20.4762 59.7904 20.4762 59.2381V59.2143C20.4762 58.662 20.9239 58.2143 21.4762 58.2143H21.5C22.0523 58.2143 22.5 58.662 22.5 59.2143V59.2381ZM18.4523 59.2381C18.4523 59.7904 18.0046 60.2381 17.4523 60.2381H17.4285C16.8763 60.2381 16.4285 59.7904 16.4285 59.2381V59.2143C16.4285 58.662 16.8763 58.2143 17.4285 58.2143H17.4524C18.0046 58.2143 18.4523 58.662 18.4523 59.2143V59.2381ZM14.4047 59.2381C14.4047 59.7904 13.957 60.2381 13.4047 60.2381H13.3809C12.8286 60.2381 12.3809 59.7904 12.3809 59.2381V59.2143C12.3809 58.662 12.8286 58.2143 13.3809 58.2143H13.4047C13.957 58.2143 14.4047 58.662 14.4047 59.2143V59.2381ZM50.8333 63.2857C50.8333 63.838 50.3856 64.2857 49.8333 64.2857H49.8095C49.2572 64.2857 48.8095 63.838 48.8095 63.2857V63.2619C48.8095 62.7096 49.2572 62.2619 49.8095 62.2619H49.8333C50.3856 62.2619 50.8333 62.7096 50.8333 63.2619V63.2857ZM46.7857 63.2857C46.7857 63.838 46.338 64.2857 45.7857 64.2857H45.7619C45.2096 64.2857 44.7619 63.838 44.7619 63.2857V63.2619C44.7619 62.7096 45.2096 62.2619 45.7619 62.2619H45.7857C46.338 62.2619 46.7857 62.7096 46.7857 63.2619V63.2857ZM42.7381 63.2857C42.7381 63.838 42.2904 64.2857 41.7381 64.2857H41.7143C41.162 64.2857 40.7143 63.838 40.7143 63.2857V63.2619C40.7143 62.7096 41.162 62.2619 41.7143 62.2619H41.7381C42.2904 62.2619 42.7381 62.7096 42.7381 63.2619V63.2857ZM38.6904 63.2857C38.6904 63.838 38.2427 64.2857 37.6904 64.2857H37.6666C37.1143 64.2857 36.6666 63.838 36.6666 63.2857V63.2619C36.6666 62.7096 37.1144 62.2619 37.6666 62.2619H37.6904C38.2427 62.2619 38.6904 62.7096 38.6904 63.2619V63.2857ZM34.6428 63.2857C34.6428 63.838 34.1951 64.2857 33.6428 64.2857H33.619C33.0667 64.2857 32.619 63.838 32.619 63.2857V63.2619C32.619 62.7096 33.0667 62.2619 33.619 62.2619H33.6428C34.1951 62.2619 34.6428 62.7096 34.6428 63.2619V63.2857ZM30.5952 63.2857C30.5952 63.838 30.1475 64.2857 29.5952 64.2857H29.5714C29.0191 64.2857 28.5714 63.838 28.5714 63.2857V63.2619C28.5714 62.7096 29.0191 62.2619 29.5714 62.2619H29.5952C30.1475 62.2619 30.5952 62.7096 30.5952 63.2619V63.2857ZM26.5476 63.2857C26.5476 63.838 26.0999 64.2857 25.5476 64.2857H25.5238C24.9715 64.2857 24.5238 63.838 24.5238 63.2857V63.2619C24.5238 62.7096 24.9715 62.2619 25.5238 62.2619H25.5476C26.0999 62.2619 26.5476 62.7096 26.5476 63.2619V63.2857ZM22.5 63.2857C22.5 63.838 22.0523 64.2857 21.5 64.2857H21.4762C20.9239 64.2857 20.4762 63.838 20.4762 63.2857V63.2619C20.4762 62.7096 20.9239 62.2619 21.4762 62.2619H21.5C22.0523 62.2619 22.5 62.7096 22.5 63.2619V63.2857ZM18.4523 63.2857C18.4523 63.838 18.0046 64.2857 17.4523 64.2857H17.4285C16.8763 64.2857 16.4285 63.838 16.4285 63.2857V63.2619C16.4285 62.7096 16.8763 62.2619 17.4285 62.2619H17.4524C18.0046 62.2619 18.4523 62.7096 18.4523 63.2619V63.2857ZM14.4047 63.2857C14.4047 63.838 13.957 64.2857 13.4047 64.2857H13.3809C12.8286 64.2857 12.3809 63.838 12.3809 63.2857V63.2619C12.3809 62.7096 12.8286 62.2619 13.3809 62.2619H13.4047C13.957 62.2619 14.4047 62.7096 14.4047 63.2619V63.2857ZM60.9524 16.7143C60.9524 16.162 61.4001 15.7143 61.9524 15.7143H68.0476C68.5999 15.7143 69.0476 16.162 69.0476 16.7143V16.7381C69.0476 17.2904 68.5999 17.7381 68.0476 17.7381H61.9524C61.4001 17.7381 60.9524 17.2904 60.9524 16.7381V16.7143ZM60.9524 20.7619C60.9524 20.2096 61.4001 19.7619 61.9524 19.7619H68.0476C68.5999 19.7619 69.0476 20.2096 69.0476 20.7619V20.7857C69.0476 21.338 68.5999 21.7857 68.0476 21.7857H61.9524C61.4001 21.7857 60.9524 21.338 60.9524 20.7857V20.7619ZM60.9524 24.8095C60.9524 24.2572 61.4001 23.8095 61.9524 23.8095H68.0476C68.5999 23.8095 69.0476 24.2572 69.0476 24.8095V24.8333C69.0476 25.3856 68.5999 25.8333 68.0476 25.8333H61.9524C61.4001 25.8333 60.9524 25.3856 60.9524 24.8333V24.8095Z" fill="#50AB09"/>
<path id="Vector_2" d="M70.0595 11.6667H59.9405C58.264 11.6667 56.9047 13.0259 56.9047 14.7024V50.1191H73.0952V14.7024C73.0952 13.0259 71.736 11.6667 70.0595 11.6667ZM71.0714 48.0953H58.9286V14.7024C58.9286 14.434 59.0352 14.1766 59.2249 13.9869C59.4147 13.7971 59.6721 13.6905 59.9405 13.6905H70.0595C70.3279 13.6905 70.5853 13.7971 70.775 13.9869C70.9648 14.1766 71.0714 14.434 71.0714 14.7024V48.0953ZM51.8452 54.1667H11.369C9.69255 54.1667 8.33331 55.5259 8.33331 57.2024V65.2976C8.33331 66.9741 9.69255 68.3334 11.369 68.3334H51.8452C53.5217 68.3334 54.8809 66.9741 54.8809 65.2976V57.2024C54.8809 55.5259 53.5217 54.1667 51.8452 54.1667ZM52.8571 65.2976C52.8571 65.566 52.7505 65.8234 52.5607 66.0132C52.371 66.2029 52.1136 66.3095 51.8452 66.3095H11.369C11.1007 66.3095 10.8433 66.2029 10.6535 66.0132C10.4637 65.8234 10.3571 65.566 10.3571 65.2976V57.2024C10.3571 56.934 10.4637 56.6766 10.6535 56.4869C10.8433 56.2971 11.1007 56.1905 11.369 56.1905H51.8452C52.1136 56.1905 52.371 56.2971 52.5607 56.4869C52.7505 56.6766 52.8571 56.934 52.8571 57.2024V65.2976ZM63.9881 54.1667C61.195 54.1701 58.932 56.4331 58.9286 59.2262V63.2738C58.9286 66.068 61.194 68.3334 63.9881 68.3334C66.7822 68.3334 69.0476 66.068 69.0476 63.2738V59.2262C69.0442 56.4331 66.7812 54.1701 63.9881 54.1667ZM67.0238 63.2738C67.0238 64.9503 65.6645 66.3095 63.9881 66.3095C62.3116 66.3095 60.9524 64.9503 60.9524 63.2738V59.2262C60.955 58.6006 61.1509 57.9911 61.5131 57.4811C61.8754 56.9711 62.3864 56.5854 62.9762 56.3768V59.2381C62.9762 59.7904 63.4239 60.2381 63.9762 60.2381H64C64.5523 60.2381 65 59.7904 65 59.2381V56.3768C65.5898 56.5854 66.1007 56.9711 66.463 57.4811C66.8253 57.9911 67.0211 58.6006 67.0238 59.2262V63.2738ZM51.8452 11.6667H11.369C9.69255 11.6667 8.33331 13.0259 8.33331 14.7024V38.9881C8.33331 40.6646 9.69255 42.0238 11.369 42.0238H25.5357V46.2404C25.5347 47.2642 24.7047 48.0942 23.6809 48.0953H21.4762C20.9239 48.0953 20.4762 48.543 20.4762 49.0953V49.1191C20.4762 49.6714 20.9239 50.1191 21.4762 50.1191H39.7143C40.2666 50.1191 40.7143 49.6714 40.7143 49.1191V49.0953C40.7143 48.543 40.2666 48.0953 39.7143 48.0953H37.5096C36.4858 48.0942 35.6558 47.2642 35.6547 46.2404V42.0238H51.8452C53.5217 42.0238 54.8809 40.6646 54.8809 38.9881V14.7024C54.8809 13.0259 53.5217 11.6667 51.8452 11.6667ZM27.0862 48.0953C27.3976 47.5267 27.5604 46.8887 27.5595 46.2404V42.0238H29.5833V46.3244H31.6071V42.0238H33.6309V46.2404C33.6301 46.8887 33.7929 47.5267 34.1043 48.0953H27.0862ZM52.8571 38.9881C52.8571 39.2565 52.7505 39.5139 52.5607 39.7036C52.371 39.8934 52.1136 40 51.8452 40H11.369C11.1007 40 10.8433 39.8934 10.6535 39.7036C10.4637 39.5139 10.3571 39.2565 10.3571 38.9881V33.9286H52.8571V38.9881ZM52.8571 31.9048H10.3571V14.7024C10.3571 14.434 10.4637 14.1766 10.6535 13.9869C10.8433 13.7971 11.1007 13.6905 11.369 13.6905H51.8452C52.1136 13.6905 52.371 13.7971 52.5607 13.9869C52.7505 14.1766 52.8571 14.434 52.8571 14.7024V31.9048Z" fill="#50AB09"/>
<path id="Vector_3" d="M66.0119 38.12V36.9524C66.0119 36.4001 65.5642 35.9524 65.0119 35.9524H64.9881C64.4358 35.9524 63.9881 36.4001 63.9881 36.9524V38.12C62.0146 38.6294 60.7276 40.5272 60.9845 42.549C61.2414 44.5708 62.9619 46.0869 65 46.0869C67.0381 46.0869 68.7586 44.5709 69.0155 42.549C69.2724 40.5271 67.9854 38.6294 66.0119 38.12ZM65 44.0476C64.0855 44.0502 63.2835 43.4369 63.0464 42.5534C62.8092 41.6699 63.1956 40.7377 63.9881 40.2812V42.0238H66.0119V40.2812C66.8045 40.7377 67.1908 41.67 66.9536 42.5534C66.7164 43.4368 65.9145 44.0502 65 44.0476ZM29.5833 36.9524C29.5833 36.4001 30.031 35.9524 30.5833 35.9524H30.6071C31.1594 35.9524 31.6071 36.4001 31.6071 36.9524V36.9762C31.6071 37.5285 31.1594 37.9762 30.6071 37.9762H30.5833C30.031 37.9762 29.5833 37.5285 29.5833 36.9762V36.9524Z" fill="#50AB09"/>
</g>
</g>
</svg>
