<svg width="80" height="80" viewBox="0 0 80 80" fill="none" xmlns="http://www.w3.org/2000/svg">
<g id="svg-gobbler - 2023-06-21T140841.829 1">
<g id="Group">
<path id="Vector" d="M68.0734 54.527L65.7446 56.8558L63.1182 54.2294L65.447 51.9006C65.6374 51.7102 65.7444 51.4519 65.7444 51.1825C65.7444 50.9132 65.6374 50.6549 65.447 50.4645C65.2565 50.2741 64.9983 50.1671 64.7289 50.1671C64.4596 50.1671 64.2013 50.2741 64.0109 50.4645L61.6821 52.7933L60.3689 51.4801C60.2746 51.3857 60.1627 51.3108 60.0395 51.2597C59.9163 51.2086 59.7842 51.1823 59.6508 51.1823C59.5174 51.1823 59.3854 51.2086 59.2621 51.2597C59.1389 51.3108 59.027 51.3857 58.9328 51.4801L54.2751 56.1378C53.7049 56.7097 53.3847 57.4843 53.3847 58.2919C53.3847 59.0995 53.7049 59.8742 54.2751 60.4461L54.4681 60.639C49.976 63.8575 44.7171 65.5729 39.1667 65.5729C24.6057 65.5729 12.7604 53.7267 12.7604 39.1667C12.7604 37.4868 11.3934 36.1198 9.71354 36.1198C8.0337 36.1198 6.66667 37.4868 6.66667 39.1667C6.66667 57.0874 21.246 71.6667 39.1667 71.6667C46.2766 71.657 53.1881 69.3214 58.8464 65.0164L59.5279 65.6979C60.1007 66.2717 60.8665 66.5886 61.6821 66.5886C62.4976 66.5886 63.2634 66.2717 63.8362 65.6989L68.4939 61.0412C68.5883 60.947 68.6632 60.8351 68.7142 60.7118C68.7653 60.5886 68.7916 60.4566 68.7916 60.3232C68.7916 60.1898 68.7653 60.0577 68.7142 59.9345C68.6632 59.8113 68.5883 59.6994 68.4939 59.6051L67.1807 58.2919L69.5095 55.9631C69.6038 55.8688 69.6786 55.7569 69.7296 55.6337C69.7806 55.5104 69.8069 55.3784 69.8069 55.245C69.8069 55.1117 69.7806 54.9796 69.7296 54.8564C69.6786 54.7332 69.6038 54.6213 69.5095 54.527C69.4152 54.4327 69.3032 54.3579 69.18 54.3069C69.0568 54.2558 68.9248 54.2296 68.7914 54.2296C68.6581 54.2296 68.526 54.2558 68.4028 54.3069C68.2796 54.3579 68.1677 54.4327 68.0734 54.527ZM39.1667 69.6354C22.3662 69.6354 8.69792 55.9672 8.69792 39.1667C8.70962 38.9052 8.82173 38.6583 9.01092 38.4774C9.2001 38.2964 9.45178 38.1955 9.71354 38.1955C9.97531 38.1955 10.227 38.2964 10.4162 38.4774C10.6054 38.6583 10.7175 38.9052 10.7292 39.1667C10.7292 54.8469 23.4854 67.6042 39.1667 67.6042C45.2584 67.6042 51.0251 65.6887 55.9225 62.0934L57.3819 63.5529C52.0895 67.5199 45.8251 69.6354 39.1667 69.6354ZM62.4001 64.2618C62.2059 64.445 61.9491 64.5471 61.6821 64.5471C61.4151 64.5471 61.1582 64.445 60.964 64.2618L55.7112 59.009C55.5208 58.8185 55.4138 58.5602 55.4138 58.2909C55.4138 58.0216 55.5208 57.7633 55.7112 57.5729L59.6508 53.6332L66.3397 60.3222L62.4001 64.2618Z" fill="#50AB09"/>
<path id="Vector_2" d="M41.4924 21.9447C41.2838 21.8815 41.0604 21.8871 40.8552 21.9606C40.65 22.0341 40.4739 22.1717 40.3529 22.353L28.1654 40.6343C28.0634 40.7872 28.0047 40.965 27.9958 41.1487C27.9869 41.3323 28.028 41.515 28.1148 41.6771C28.2015 41.8392 28.3306 41.9747 28.4884 42.0692C28.6461 42.1637 28.8265 42.2136 29.0104 42.2136H36.1198V55.4167C36.1197 55.6347 36.1898 55.8469 36.3197 56.022C36.4496 56.1971 36.6323 56.3257 36.8409 56.3889C37.0496 56.4521 37.273 56.4465 37.4782 56.373C37.6834 56.2994 37.8595 56.1617 37.9804 55.9804L50.1679 37.6991C50.27 37.5462 50.3286 37.3684 50.3375 37.1847C50.3464 37.0011 50.3053 36.8184 50.2186 36.6563C50.1318 36.4942 50.0027 36.3587 49.8449 36.2642C49.6872 36.1697 49.5068 36.1198 49.3229 36.1198H42.2135V22.9167C42.2135 22.6988 42.1434 22.4866 42.0136 22.3116C41.8837 22.1366 41.701 22.008 41.4924 21.9447ZM47.4257 38.1511L38.151 52.0621V41.198C38.151 40.9286 38.044 40.6703 37.8536 40.4798C37.6631 40.2893 37.4048 40.1823 37.1354 40.1823H30.9076L40.1823 26.2713V37.1355C40.1823 37.4048 40.2893 37.6631 40.4797 37.8536C40.6702 38.0441 40.9285 38.1511 41.1979 38.1511H47.4257Z" fill="#50AB09"/>
<path id="Vector_3" d="M39.1667 6.66669C32.0568 6.67639 25.1453 9.01196 19.4869 13.317L18.8054 12.6355C17.6588 11.4879 15.6438 11.4879 14.4971 12.6355L9.83947 17.2932C9.74507 17.3874 9.67018 17.4993 9.61908 17.6225C9.56798 17.7458 9.54168 17.8778 9.54168 18.0112C9.54168 18.1446 9.56798 18.2767 9.61908 18.3999C9.67018 18.5231 9.74507 18.635 9.83947 18.7293L11.1527 20.0425L8.82384 22.3713C8.72955 22.4656 8.65475 22.5775 8.60371 22.7007C8.55268 22.8239 8.52642 22.956 8.52642 23.0893C8.52642 23.2227 8.55268 23.3547 8.60371 23.4779C8.65475 23.6012 8.72955 23.7131 8.82384 23.8074C8.91814 23.9017 9.03008 23.9765 9.15328 24.0275C9.27649 24.0786 9.40853 24.1048 9.54189 24.1048C9.67524 24.1048 9.80729 24.0786 9.93049 24.0275C10.0537 23.9765 10.1656 23.9017 10.2599 23.8074L12.5888 21.4786L15.2152 24.105L12.8863 26.4338C12.792 26.5281 12.7172 26.64 12.6662 26.7632C12.6152 26.8864 12.5889 27.0185 12.5889 27.1518C12.5889 27.2852 12.6152 27.4172 12.6662 27.5404C12.7172 27.6637 12.792 27.7756 12.8863 27.8699C12.9806 27.9642 13.0926 28.039 13.2158 28.09C13.339 28.1411 13.471 28.1673 13.6044 28.1673C13.7377 28.1673 13.8698 28.1411 13.993 28.09C14.1162 28.039 14.2281 27.9642 14.3224 27.8699L16.6513 25.5411L17.9645 26.8543C18.0586 26.9489 18.1704 27.024 18.2937 27.0753C18.4169 27.1265 18.5491 27.1529 18.6825 27.1529C18.816 27.1529 18.9481 27.1265 19.0713 27.0753C19.1946 27.024 19.3065 26.9489 19.4006 26.8543L24.0582 22.1966C24.6284 21.6247 24.9486 20.8501 24.9486 20.0425C24.9486 19.2349 24.6284 18.4602 24.0582 17.8883L23.8652 17.6954C28.3574 14.4758 33.6163 12.7604 39.1667 12.7604C53.7277 12.7604 65.5729 24.6067 65.5729 39.1667C65.5729 40.8465 66.9399 42.2136 68.6198 42.2136C70.2996 42.2136 71.6667 40.8465 71.6667 39.1667C71.6667 21.246 57.0863 6.66669 39.1667 6.66669ZM22.6221 20.7605L18.6825 24.7001L11.9936 18.0112L15.9332 14.0716C16.1274 13.8883 16.3843 13.7863 16.6513 13.7863C16.9183 13.7863 17.1751 13.8883 17.3693 14.0716L22.6221 19.3244C22.8125 19.5149 22.9195 19.7732 22.9195 20.0425C22.9195 20.3118 22.8125 20.5701 22.6221 20.7605ZM68.6198 40.1823C68.0592 40.1823 67.6042 39.7263 67.6042 39.1667C67.6042 23.4854 54.8469 10.7292 39.1667 10.7292C33.0749 10.7292 27.3082 12.6447 22.4109 16.24L20.9524 14.7825C26.1941 10.8653 32.6067 8.69794 39.1667 8.69794C55.9671 8.69794 69.6354 22.3662 69.6354 39.1667C69.6354 39.7263 69.1804 40.1823 68.6198 40.1823Z" fill="#50AB09"/>
</g>
</g>
</svg>
