<svg width="659" height="671" viewBox="0 0 659 671" fill="none" xmlns="http://www.w3.org/2000/svg">
<g opacity="0.05">
<path d="M552.485 656.299C507.604 670.754 459.687 674.656 417.396 666.375C381.332 659.175 349.656 643.651 325.006 621.514C318.004 614.972 312.101 607.368 307.105 598.355C283.953 558.619 272.997 465.011 226.172 438.398C168.132 405.765 46.8973 421.285 8.12717 324.948C-3.27172 297.278 -1.181 263.49 10.2487 231.323C19.4878 205.356 37.2511 180.555 57.989 159.089C91.5324 124.181 132.27 96.162 176.944 73.2118C202.293 60.0666 229.226 48.7628 255.683 38.6295C310.08 17.9937 393.578 92.6478 449.958 82.6955C535.246 68.0485 595.921 -22.6239 667.551 6.10155C683.554 12.639 699.08 20.3471 712.408 30.1801C729.188 42.1786 743.146 56.194 755.767 71.8571C773.138 93.0443 786.828 116.726 797.743 141.492C835.729 228.293 837.22 333.51 794.606 433.266C745.267 546.266 647.558 625.805 552.485 656.299Z" fill="url(#paint0_linear_25_2015)"/>
<path d="M552.485 656.299C507.604 670.754 459.687 674.656 417.396 666.375C381.332 659.175 349.656 643.651 325.006 621.514C318.004 614.972 312.101 607.368 307.105 598.355C283.953 558.619 272.997 465.011 226.172 438.398C168.132 405.765 46.8973 421.285 8.12717 324.948C-3.27172 297.278 -1.181 263.49 10.2487 231.323C19.4878 205.356 37.2511 180.555 57.989 159.089C91.5324 124.181 132.27 96.162 176.944 73.2118C202.293 60.0666 229.226 48.7628 255.683 38.6295C310.08 17.9937 393.578 92.6478 449.958 82.6955C535.246 68.0485 595.921 -22.6239 667.551 6.10155C683.554 12.639 699.08 20.3471 712.408 30.1801C729.188 42.1786 743.146 56.194 755.767 71.8571C773.138 93.0443 786.828 116.726 797.743 141.492C835.729 228.293 837.22 333.51 794.606 433.266C745.267 546.266 647.558 625.805 552.485 656.299Z" fill="url(#paint1_linear_25_2015)"/>
</g>
<defs>
<linearGradient id="paint0_linear_25_2015" x1="793.401" y1="377.161" x2="79.4836" y2="85.7506" gradientUnits="userSpaceOnUse">
<stop offset="0.00666585" stop-color="#FF9C37"/>
<stop offset="0.9967" stop-color="#FF7300"/>
</linearGradient>
<linearGradient id="paint1_linear_25_2015" x1="684.443" y1="-235.525" x2="396.478" y2="941.895" gradientUnits="userSpaceOnUse">
<stop stop-color="#FFDF00"/>
<stop offset="1" stop-color="#FFB800"/>
</linearGradient>
</defs>
</svg>
