<svg width="474" height="600" viewBox="0 0 474 600" fill="none" xmlns="http://www.w3.org/2000/svg">
<g opacity="0.05">
<path d="M78.1564 545.316C105.272 571.033 140.113 589.482 176.852 596.606C208.253 602.573 240.533 600.627 270.79 591.257C279.514 588.397 287.937 584.354 296.382 578.919C334.477 555.32 390.717 485.718 440.307 479.979C501.592 473.141 586.858 524.231 665.873 461.437C688.77 443.485 704.423 416.419 712.069 387.618C718.233 364.363 717.247 339.28 712.271 315.847C704.319 277.796 687.317 242.815 664.7 210.528C651.929 192.112 636.999 174.625 621.839 158.206C590.565 124.602 488.243 156.083 449.988 130.187C391.909 91.3329 391.587 1.00083 321.851 0.417859C306.21 0.38122 290.337 1.41217 275.068 4.80954C256.041 8.78938 238.151 15.2514 220.448 23.4304C196.271 34.3979 173.651 48.4971 152.609 64.3357C79.0679 119.933 24.1724 201.647 5.97064 293.269C-13.8271 397.399 20.6509 490.938 78.1564 545.316Z" fill="url(#paint0_linear_25_550)"/>
<path d="M78.1564 545.316C105.272 571.033 140.113 589.482 176.852 596.606C208.253 602.573 240.533 600.627 270.79 591.257C279.514 588.397 287.937 584.354 296.382 578.919C334.477 555.32 390.717 485.718 440.307 479.979C501.592 473.141 586.858 524.231 665.873 461.437C688.77 443.485 704.423 416.419 712.069 387.618C718.233 364.363 717.247 339.28 712.271 315.847C704.319 277.796 687.317 242.815 664.7 210.528C651.929 192.112 636.999 174.625 621.839 158.206C590.565 124.602 488.243 156.083 449.988 130.187C391.909 91.3329 391.587 1.00083 321.851 0.417859C306.21 0.38122 290.337 1.41217 275.068 4.80954C256.041 8.78938 238.151 15.2514 220.448 23.4304C196.271 34.3979 173.651 48.4971 152.609 64.3357C79.0679 119.933 24.1724 201.647 5.97064 293.269C-13.8271 397.399 20.6509 490.938 78.1564 545.316Z" fill="url(#paint1_linear_25_550)"/>
</g>
<defs>
<linearGradient id="paint0_linear_25_550" x1="35.5575" y1="249.829" x2="702.491" y2="393.882" gradientUnits="userSpaceOnUse">
<stop offset="0.00666585" stop-color="#FF9C37"/>
<stop offset="0.9967" stop-color="#FF7300"/>
</linearGradient>
<linearGradient id="paint1_linear_25_550" x1="432.297" y1="-193.763" x2="279.786" y2="851.757" gradientUnits="userSpaceOnUse">
<stop stop-color="#FFDF00"/>
<stop offset="1" stop-color="#FFB800"/>
</linearGradient>
</defs>
</svg>
